<svg id="Vrstva_1" data-name="Vrstva 1" xmlns="http://www.w3.org/2000/svg" xmlns:xlink="http://www.w3.org/1999/xlink" viewBox="0 0 595.32001 841.92004"><defs><style>.cls-1,.cls-16,.cls-4,.cls-51{fill:none;}.cls-2{clip-path:url(#clip-path);}.cls-3{fill:#2b2b2b;}.cls-3,.cls-5{fill-rule:evenodd;}.cls-16,.cls-4{stroke:#000;}.cls-4,.cls-51{stroke-linecap:square;stroke-miterlimit:2;}.cls-4{stroke-width:2.28px;}.cls-6{font-size:24.00043px;}.cls-28,.cls-6{font-family:Calibri-Bold, Calibri;font-weight:700;}.cls-7{letter-spacing:0.001em;}.cls-8{letter-spacing:-0.00299em;}.cls-9{letter-spacing:0.00299em;}.cls-10{letter-spacing:-0.005em;}.cls-11{letter-spacing:0.006em;}.cls-12{letter-spacing:-0.00301em;}.cls-13{letter-spacing:0.00401em;}.cls-14{letter-spacing:-0.007em;}.cls-15{letter-spacing:-0.006em;}.cls-16{stroke-linecap:round;stroke-linejoin:round;stroke-width:1.44px;}.cls-17{fill:#fff;}.cls-18{font-size:12.00021px;fill:#595959;font-family:Calibri;}.cls-19{letter-spacing:0.00399em;}.cls-20{letter-spacing:-0.00098em;}.cls-21{letter-spacing:0.005em;}.cls-22{letter-spacing:-0.00704em;}.cls-23{letter-spacing:0.00403em;}.cls-24{letter-spacing:-0.00602em;}.cls-25{letter-spacing:0.00102em;}.cls-26{letter-spacing:0.00199em;}.cls-27{letter-spacing:-0.00802em;}.cls-28{font-size:18.00044px;}.cls-29{letter-spacing:0.00098em;}.cls-30{letter-spacing:-0.00298em;}.cls-31{letter-spacing:0.00298em;}.cls-32{letter-spacing:0.00401em;}.cls-33{letter-spacing:-0.00602em;}.cls-34{letter-spacing:0.00201em;}.cls-35{letter-spacing:0.00602em;}.cls-36{letter-spacing:0.00496em;}.cls-37{letter-spacing:0.00301em;}.cls-38{letter-spacing:-0.00399em;}.cls-39{letter-spacing:0.00098em;}.cls-40{letter-spacing:0.00195em;}.cls-41{letter-spacing:-0.00203em;}.cls-42{letter-spacing:0.007em;}.cls-43{letter-spacing:-0.00496em;}.cls-44{letter-spacing:-0.00903em;}.cls-45{letter-spacing:0.00505em;}.cls-46{letter-spacing:-0.00505em;}.cls-47{letter-spacing:-0.00297em;}.cls-48{letter-spacing:0.00598em;}.cls-49{letter-spacing:-0.00598em;}.cls-50{letter-spacing:-0.00899em;}.cls-51{stroke:#c8c8c8;stroke-width:0.24px;}.cls-52{letter-spacing:-0.00102em;}.cls-53{letter-spacing:-0.00004em;}.cls-54{letter-spacing:0.00203em;}.cls-55{letter-spacing:-0.00199em;}.cls-56{letter-spacing:-0.00895em;}.cls-57{letter-spacing:0.00293em;}.cls-58{letter-spacing:0.00106em;}.cls-59{letter-spacing:0.00407em;}.cls-60{letter-spacing:0.00602em;}</style><clipPath id="clip-path"><rect class="cls-1" width="595.19995" height="841.80005"/></clipPath></defs><title>Kreslicí plátno 1</title><g class="cls-2"><path class="cls-3" d="M100.44,276.48a5.70032,5.70032,0,1,1,5.76,5.64A5.6606,5.6606,0,0,1,100.44,276.48Z"/><path class="cls-4" d="M100.44,276.48a5.70032,5.70032,0,1,1,5.76,5.64,5.6606,5.6606,0,0,1-5.76-5.64"/><path class="cls-5" d="M101.64,276.48A4.5004,4.5004,0,1,1,106.2,281.04,4.558,4.558,0,0,1,101.64,276.48Z"/><path class="cls-4" d="M101.64,276.48A4.5004,4.5004,0,1,1,106.2,281.04a4.558,4.558,0,0,1-4.56-4.56006"/><path class="cls-4" d="M148.68,409.68h164.4a11.29341,11.29341,0,0,0,11.28-11.4V349.44a11.267,11.267,0,0,0-11.28-11.28H148.68a11.36983,11.36983,0,0,0-11.4,11.28v48.84A11.39487,11.39487,0,0,0,148.68,409.68Z"/></g><text class="cls-6" transform="translate(147.47998 381.12415)"><tspan class="cls-7">N</tspan><tspan class="cls-8" x="15.83285" y="0">a</tspan><tspan class="cls-9" x="27.60897" y="0">h</tspan><tspan class="cls-10" x="40.55992" y="0">r</tspan><tspan class="cls-11" x="48.97122" y="0">á</tspan><tspan class="cls-12" x="60.96317" y="0">vá</tspan><tspan class="cls-9" x="84.02272" y="0">n</tspan><tspan class="cls-13" x="96.97367" y="0">í</tspan><tspan class="cls-9" x="102.96452" y="0"> </tspan><tspan class="cls-14" x="108.46219" y="0">z</tspan><tspan class="cls-15" x="117.83348" y="0">n</tspan><tspan class="cls-11" x="130.5686" y="0">a</tspan><tspan x="142.56055" y="0">ků</tspan></text><g class="cls-2"><path class="cls-16" d="M111.84,276.48c29.76,0,78,0,100.2,13.44,16.08,9.84,18.36,26.76,18.72,41.16"/><polygon class="cls-5" points="234.84 330 230.88 338.16 226.8 330.12 234.84 330"/></g><rect class="cls-17" x="171.84" y="293.28003" width="92.87997" height="14.39996"/><text class="cls-18" transform="translate(171.96094 304.07776)">S<tspan class="cls-10" x="5.51379" y="0">p</tspan><tspan class="cls-19" x="11.75854" y="0">u</tspan><tspan class="cls-20" x="18.11121" y="0">š</tspan><tspan class="cls-21" x="22.79295" y="0">t</tspan><tspan class="cls-22" x="26.87262" y="0">ě</tspan><tspan class="cls-23" x="32.75897" y="0">n</tspan><tspan x="39.11213" y="0">í</tspan><tspan class="cls-24" x="41.8661" y="0"> </tspan><tspan class="cls-19" x="44.50677" y="0">p</tspan><tspan class="cls-25" x="50.85944" y="0">r</tspan><tspan class="cls-26" x="55.05533" y="0">o</tspan><tspan x="61.40751" y="0">g</tspan><tspan class="cls-27" x="67.05607" y="0">r</tspan><tspan class="cls-25" x="71.14355" y="0">am</tspan><tspan x="86.50178" y="0">u</tspan></text><g class="cls-2"><path class="cls-4" d="M420.72,374.28a35.46,35.46,0,1,1,35.4,35.4,35.4909,35.4909,0,0,1-35.4-35.4"/></g><text class="cls-28" transform="translate(426.35645 368.87708)"><tspan class="cls-29">N</tspan><tspan class="cls-30" x="11.87435" y="0">a</tspan><tspan class="cls-31" x="20.70662" y="0">h</tspan><tspan class="cls-32" x="30.41977" y="0">r</tspan><tspan class="cls-30" x="36.89065" y="0">á</tspan><tspan class="cls-33" x="45.72293" y="0">n</tspan><tspan class="cls-32" x="55.27397" y="0">í</tspan><tspan x="59.76725" y="0"> </tspan></text><text class="cls-28" transform="translate(434.27539 390.48108)"><tspan class="cls-34">z</tspan><tspan class="cls-33" x="7.19063" y="0">n</tspan><tspan class="cls-35" x="16.74167" y="0">a</tspan><tspan x="25.73605" y="0">ku</tspan></text><g class="cls-2"><path class="cls-16" d="M319.68,340.2c0-22.68,34.08-22.68,68.28-22.68,30,0,59.88,0,66.72,14.4"/><polygon class="cls-5" points="458.4 330.12 456.12 338.76 450.6 331.8 458.4 330.12"/></g><rect class="cls-17" x="347.87997" y="310.32001" width="79.20001" height="14.40002"/><text class="cls-18" transform="translate(347.88184 321.24036)">Sti<tspan class="cls-20" x="12.19947" y="0">s</tspan><tspan class="cls-36" x="16.88121" y="0">k</tspan><tspan class="cls-37" x="22.39597" y="0"> </tspan><tspan class="cls-38" x="25.14505" y="0">k</tspan><tspan x="30.55239" y="0">l</tspan><tspan class="cls-39" x="33.30635" y="0">á</tspan><tspan class="cls-20" x="39.06623" y="0">v</tspan><tspan class="cls-40" x="44.47455" y="0">e</tspan><tspan class="cls-20" x="50.46881" y="0">s</tspan><tspan class="cls-41" x="55.15055" y="0">y</tspan><tspan class="cls-37" x="60.55789" y="0" xml:space="preserve"> 0</tspan><tspan class="cls-24" x="69.42526" y="0">-</tspan><tspan x="73.02689" y="0">9</tspan></text><g class="cls-2"><path class="cls-16" d="M456.12,409.68c0,21.24-16.56,24.6-36.24,26.64-22.8,2.28-49.8,2.64-68.28-1.92-12.96-3.24-21.84-8.76-27.6-22.08"/><polygon class="cls-5" points="320.64 414.72 321.6 405.72 328.2 411.96 320.64 414.72"/></g><rect class="cls-17" x="348" y="430.80002" width="82.32001" height="14.39996"/><text class="cls-18" transform="translate(347.99902 441.59973)"><tspan class="cls-37">P</tspan><tspan class="cls-14" x="6.23548" y="0">o</tspan><tspan class="cls-42" x="12.47975" y="0">č</tspan><tspan class="cls-14" x="17.63806" y="0">e</tspan><tspan class="cls-36" x="23.5249" y="0">t</tspan><tspan class="cls-37" x="27.60408" y="0"> </tspan><tspan class="cls-43" x="30.35316" y="0">z</tspan><tspan class="cls-19" x="35.03392" y="0">n</tspan><tspan class="cls-44" x="41.38659" y="0">a</tspan><tspan class="cls-45" x="47.02636" y="0">k</tspan><tspan class="cls-46" x="52.5421" y="0">ů</tspan><tspan class="cls-37" x="58.78637" y="0"> </tspan><tspan class="cls-39" x="61.53545" y="0">&lt;</tspan><tspan class="cls-24" x="67.52385" y="0"> </tspan><tspan class="cls-37" x="70.16453" y="0">1</tspan><tspan x="76.28282" y="0">5</tspan></text><g class="cls-2"><path class="cls-4" d="M219.48,678.96h164.4a11.47253,11.47253,0,0,0,11.4-11.4V618.72a11.47254,11.47254,0,0,0-11.4-11.4H219.48a11.36982,11.36982,0,0,0-11.28,11.4v48.84A11.36981,11.36981,0,0,0,219.48,678.96Z"/></g><text class="cls-6" transform="translate(240.71436 636.00012)"><tspan class="cls-7">Z</tspan><tspan class="cls-26" x="11.49682" y="0">o</tspan><tspan class="cls-15" x="24.44728" y="0">b</tspan><tspan class="cls-13" x="37.18241" y="0">r</tspan><tspan class="cls-8" x="45.81002" y="0">a</tspan><tspan class="cls-26" x="57.58566" y="0">zo</tspan><tspan class="cls-47" x="80.12323" y="0">v</tspan><tspan class="cls-48" x="91.40764" y="0">á</tspan><tspan class="cls-49" x="103.3991" y="0">n</tspan><tspan x="116.13471" y="0">í</tspan></text><text class="cls-6" transform="translate(272.40137 664.79309)"><tspan class="cls-26">z</tspan><tspan class="cls-37" x="9.58711" y="0">n</tspan><tspan class="cls-12" x="22.53855" y="0">a</tspan><tspan class="cls-50" x="34.31418" y="0">k</tspan><tspan x="45.61813" y="0">ů</tspan></text><g class="cls-2"><path class="cls-16" d="M456.12,409.68c2.76,44.04-17.16,129.12006-61.56,194.04"/><polygon class="cls-5" points="398.4 605.16 390.48 609.48 391.8 600.6 398.4 605.16"/></g><rect class="cls-17" x="406.32001" y="514.44" width="82.43997" height="14.40002"/><text class="cls-18" transform="translate(406.31738 525.36047)"><tspan class="cls-37">P</tspan><tspan class="cls-14" x="6.23548" y="0">o</tspan><tspan class="cls-42" x="12.47975" y="0">č</tspan><tspan class="cls-14" x="17.63806" y="0">e</tspan><tspan class="cls-36" x="23.5249" y="0">t</tspan><tspan class="cls-37" x="27.60408" y="0"> </tspan><tspan class="cls-43" x="30.35316" y="0">z</tspan><tspan class="cls-19" x="35.03392" y="0">n</tspan><tspan class="cls-44" x="41.38659" y="0">a</tspan><tspan class="cls-45" x="47.02636" y="0">k</tspan><tspan class="cls-46" x="52.5421" y="0">ů</tspan><tspan class="cls-37" x="58.78637" y="0"> </tspan><tspan class="cls-39" x="61.53545" y="0">=</tspan><tspan class="cls-24" x="67.52385" y="0"> </tspan><tspan class="cls-37" x="70.16453" y="0">1</tspan><tspan x="76.28282" y="0">5</tspan></text><g class="cls-2"><path class="cls-5" d="M245.88,508.32a10.79155,10.79155,0,0,1,15.24,0,10.58047,10.58047,0,0,1,0,15.23993A10.77628,10.77628,0,0,1,245.88,508.32Z"/><path class="cls-51" d="M245.88,508.32a10.79155,10.79155,0,0,1,15.24,0,10.58047,10.58047,0,0,1,0,15.23993A10.77628,10.77628,0,0,1,245.88,508.32"/><path class="cls-16" d="M230.88,409.68c34.56,26.64,44.16,58.2,32.76,92.04"/><polygon class="cls-5" points="267.72 502.2 261.12 508.32 260.28 499.32 267.72 502.2"/></g><rect class="cls-17" x="212.03999" y="446.28" width="105.24001" height="14.39999"/><text class="cls-18" transform="translate(212.16162 457.19641)">Sti<tspan class="cls-52" x="12.19947" y="0">s</tspan><tspan class="cls-21" x="16.88072" y="0">k</tspan><tspan class="cls-37" x="22.39597" y="0"> </tspan><tspan class="cls-38" x="25.14505" y="0">k</tspan><tspan class="cls-53" x="30.55239" y="0">l</tspan><tspan class="cls-25" x="33.30586" y="0">á</tspan><tspan class="cls-52" x="39.06623" y="0">v</tspan><tspan class="cls-54" x="44.47406" y="0">e</tspan><tspan class="cls-52" x="50.4693" y="0">s</tspan><tspan class="cls-55" x="55.15055" y="0">y</tspan><tspan x="60.55837" y="0"> </tspan></text><text class="cls-18" transform="translate(275.51904 457.19641)">„</text><text class="cls-18" transform="translate(280.44092 457.19641)"><tspan class="cls-25">E</tspan><tspan class="cls-10" x="5.8717" y="0">N</tspan><tspan class="cls-54" x="13.5579" y="0">T</tspan><tspan class="cls-39" x="19.4296" y="0">E</tspan><tspan x="25.30081" y="0">R</tspan></text><text class="cls-18" transform="translate(312.35645 457.19641)">“</text><g class="cls-2"><path class="cls-16" d="M261.12,523.56c38.52,29.04,40.44,35.64,40.56,76.8"/><polygon class="cls-5" points="305.76 599.28 301.68 607.32 297.72 599.28 305.76 599.28"/></g><rect class="cls-17" x="258.12" y="551.03998" width="76.32001" height="14.40002"/><text class="cls-18" transform="translate(258.1167 561.96106)"><tspan class="cls-37">P</tspan><tspan class="cls-14" x="6.23548" y="0">o</tspan><tspan class="cls-42" x="12.47975" y="0">č</tspan><tspan class="cls-14" x="17.63806" y="0">e</tspan><tspan class="cls-36" x="23.5249" y="0">t</tspan><tspan class="cls-37" x="27.60408" y="0"> </tspan><tspan class="cls-10" x="30.35316" y="0">z</tspan><tspan class="cls-23" x="35.03344" y="0">n</tspan><tspan class="cls-56" x="41.3861" y="0">a</tspan><tspan class="cls-36" x="47.02685" y="0">k</tspan><tspan class="cls-43" x="52.54161" y="0">ů</tspan><tspan class="cls-57" x="58.78685" y="0"> </tspan><tspan class="cls-58" x="61.53496" y="0">&gt;</tspan><tspan class="cls-24" x="67.52434" y="0"> </tspan><tspan x="70.16502" y="0">4</tspan></text><g class="cls-2"><path class="cls-16" d="M208.2,643.19995c-92.16,0-137.28-76.43994-136.08-145.31995,1.08-58.92,35.88-112.44,58.32-122.4"/><polygon class="cls-5" points="128.52 371.88 137.28 373.92 130.44 379.68 128.52 371.88"/></g><rect class="cls-17" x="23.4" y="528.12" width="105.24" height="14.40002"/><text class="cls-18" transform="translate(23.51953 538.91809)">Sti<tspan class="cls-52" x="12.19947" y="0">s</tspan><tspan class="cls-21" x="16.88072" y="0">k</tspan><tspan class="cls-37" x="22.39597" y="0"> </tspan><tspan class="cls-38" x="25.14505" y="0">k</tspan><tspan class="cls-53" x="30.55239" y="0">l</tspan><tspan class="cls-25" x="33.30586" y="0">á</tspan><tspan class="cls-52" x="39.06623" y="0">v</tspan><tspan class="cls-54" x="44.47406" y="0">e</tspan><tspan class="cls-52" x="50.4693" y="0">s</tspan><tspan class="cls-55" x="55.15055" y="0">y</tspan><tspan x="60.55837" y="0"> </tspan></text><text class="cls-18" transform="translate(86.75977 538.91809)">„</text><text class="cls-18" transform="translate(91.79883 538.91809)"><tspan class="cls-25">E</tspan><tspan class="cls-10" x="5.8717" y="0">N</tspan><tspan class="cls-26" x="13.5579" y="0">T</tspan><tspan class="cls-39" x="19.4296" y="0">E</tspan><tspan x="25.30081" y="0">R</tspan></text><text class="cls-18" transform="translate(123.59766 538.91809)">“</text><g class="cls-2"><path class="cls-16" d="M245.88,523.56c-42,6.6-59.64-4.8-70.68-13.2-9.48-7.2-14.16-12.24-18.24-17.64-3.84-5.16-7.08-10.56-10.68-20.76-3.72-11.04-7.8-27.48-5.28-57.6"/><polygon class="cls-5" points="136.92 414.96 141.72 407.28 144.96 415.68 136.92 414.96"/></g><rect class="cls-17" x="122.16" y="489.72003" width="76.32001" height="14.39996"/><text class="cls-18" transform="translate(122.2793 500.64075)"><tspan class="cls-37">P</tspan><tspan class="cls-14" x="6.23548" y="0">o</tspan><tspan class="cls-42" x="12.47975" y="0">č</tspan><tspan class="cls-14" x="17.63806" y="0">e</tspan><tspan class="cls-36" x="23.5249" y="0">t</tspan><tspan class="cls-37" x="27.60408" y="0"> </tspan><tspan class="cls-10" x="30.35316" y="0">z</tspan><tspan class="cls-19" x="35.03344" y="0">n</tspan><tspan class="cls-50" x="41.3861" y="0">a</tspan><tspan class="cls-21" x="47.02636" y="0">k</tspan><tspan class="cls-10" x="52.54161" y="0">ů</tspan><tspan class="cls-37" x="58.78637" y="0"> </tspan><tspan class="cls-39" x="61.53545" y="0">&lt;</tspan><tspan class="cls-49" x="67.52385" y="0"> </tspan><tspan x="70.16502" y="0">5</tspan></text><g class="cls-2"><path class="cls-16" d="M383.88,679.08A90.22572,90.22572,0,1,1,216,687.96"/><polygon class="cls-5" points="210.48 687.24 219.48 679.08 220.68 691.2 210.48 687.24"/></g><rect class="cls-17" x="256.32001" y="789.35999" width="90.71997" height="34.20001"/><text class="cls-18" transform="translate(267.47998 802.91711)"><tspan class="cls-37">P</tspan><tspan class="cls-14" x="6.23548" y="0">o</tspan><tspan class="cls-52" x="12.47975" y="0">s</tspan><tspan class="cls-19" x="17.161" y="0">un</tspan><tspan class="cls-49" x="29.86634" y="0"> </tspan><tspan class="cls-59" x="32.50702" y="0">z</tspan><tspan class="cls-46" x="37.29618" y="0">n</tspan><tspan class="cls-39" x="43.54045" y="0">a</tspan><tspan class="cls-45" x="49.30033" y="0">k</tspan><tspan class="cls-46" x="54.81607" y="0">u</tspan><tspan class="cls-37" x="61.06034" y="0"> </tspan><tspan class="cls-20" x="63.80942" y="0">s</tspan><tspan x="68.49115" y="0"> </tspan></text><text class="cls-18" transform="translate(267.72021 817.31653)"><tspan class="cls-19">p</tspan><tspan class="cls-14" x="6.35267" y="0">e</tspan><tspan class="cls-25" x="12.23951" y="0">r</tspan><tspan x="16.4354" y="0">i</tspan><tspan class="cls-26" x="19.18936" y="0">o</tspan><tspan class="cls-43" x="25.54154" y="0">d</tspan><tspan class="cls-40" x="31.7863" y="0">o</tspan><tspan class="cls-59" x="38.13799" y="0">u</tspan><tspan class="cls-24" x="44.49164" y="0"> </tspan><tspan class="cls-37" x="47.13232" y="0">2</tspan><tspan class="cls-24" x="53.25061" y="0"> </tspan><tspan class="cls-60" x="55.89129" y="0">H</tspan><tspan x="63.44027" y="0">z</tspan></text></svg>